<?xml version="1.0" standalone="no"?>
<!DOCTYPE svg PUBLIC "-//W3C//DTD SVG 20010904//EN"
 "http://www.w3.org/TR/2001/REC-SVG-20010904/DTD/svg10.dtd">
<svg version="1.0" xmlns="http://www.w3.org/2000/svg"
 width="640.000000pt" height="400.000000pt" viewBox="0 0 640.000000 400.000000"
 preserveAspectRatio="xMidYMid meet">
<metadata>
Created by potrace 1.16, written by Peter Selinger 2001-2019
</metadata>
<g transform="translate(0.000000,400.000000) scale(0.100000,-0.100000)"
fill="#000000" stroke="none">
<path d="M684 3798 c59 -112 176 -341 262 -510 118 -234 158 -306 170 -301 8
3 24 23 35 45 11 22 45 66 75 100 31 33 53 62 50 65 -3 3 8 25 24 49 25 36 36
43 68 46 30 2 38 7 40 26 2 13 -4 34 -12 47 -9 13 -16 27 -16 30 0 11 35 4 52
-12 28 -25 31 -11 8 48 -11 30 -20 62 -20 72 0 26 19 20 31 -9 9 -26 10 -26
29 -9 11 10 20 29 20 42 0 16 7 27 20 30 11 3 20 9 20 13 0 4 -9 19 -20 33
-22 28 -26 57 -10 73 7 7 4 25 -9 57 l-20 47 25 0 c14 0 34 -5 46 -11 23 -13
37 -4 20 13 -7 7 -12 20 -12 30 0 10 -6 19 -12 20 -7 0 7 4 32 7 44 6 45 6 42
41 -5 55 -22 99 -42 110 -12 6 -204 10 -510 10 l-491 0 105 -202z"/>
<path d="M3666 3941 c-14 -32 -26 -66 -26 -75 0 -9 -9 -21 -20 -28 -38 -23
-148 -234 -131 -251 5 -5 63 -13 128 -18 129 -9 168 -17 257 -57 l58 -26 29
35 c35 43 40 38 83 -77 28 -74 34 -104 35 -181 1 -61 8 -111 21 -149 11 -31
20 -70 20 -86 0 -30 9 -35 28 -16 16 16 15 57 -3 107 -9 26 -12 58 -8 91 4 31
1 55 -6 64 -6 7 -18 49 -27 92 -15 80 -51 200 -65 219 -5 6 -11 30 -15 53 -3
23 -12 46 -20 52 -7 6 -20 46 -29 88 -17 75 -21 87 -44 145 -6 15 -11 39 -11
52 l0 25 -114 0 -113 0 -27 -59z"/>
<path d="M1804 3723 c-10 -21 -29 -56 -44 -78 -14 -22 -31 -49 -36 -60 -6 -11
-16 -20 -23 -20 -18 0 -31 -26 -31 -62 0 -32 -9 -38 -46 -34 -6 1 -16 -10 -22
-24 -6 -14 -17 -25 -23 -25 -6 0 -9 -7 -5 -15 5 -14 -13 -40 -35 -47 -9 -3 -9
-10 0 -27 12 -21 11 -22 -8 -16 -23 7 -26 -1 -11 -39 11 -31 36 -34 43 -6 3
11 13 23 24 27 10 4 29 17 43 30 35 33 174 99 245 117 33 9 134 23 225 33
l165 17 48 49 c26 27 47 54 47 59 0 5 -30 38 -67 74 -49 47 -74 64 -94 64 -28
0 -89 -43 -89 -63 0 -18 -64 -106 -78 -107 -16 0 -93 75 -147 143 -20 26 -43
47 -51 47 -7 0 -21 -17 -30 -37z"/>
<path d="M3630 3080 c0 -5 7 -10 15 -10 8 0 20 -10 26 -22 16 -29 36 -45 77
-59 41 -14 112 -59 112 -72 0 -5 -7 -7 -15 -3 -20 7 -19 -1 5 -31 15 -19 20
-21 20 -9 0 19 2 19 32 5 27 -14 93 -87 85 -95 -3 -3 -16 -1 -29 6 l-23 11 24
-21 c34 -29 20 -35 -23 -10 -19 12 -41 20 -48 17 -7 -2 10 -16 39 -30 69 -36
79 -52 25 -44 -23 4 -61 9 -84 12 l-43 6 30 -15 c17 -8 44 -18 60 -23 23 -6 7
-9 -65 -13 -100 -5 -92 -11 41 -26 79 -9 89 -17 59 -48 -13 -15 -29 -26 -36
-26 -7 0 -20 -22 -29 -49 -9 -27 -24 -52 -33 -56 -15 -6 -15 -7 2 -17 11 -6
34 -11 52 -10 18 1 36 -3 39 -8 8 -13 -45 -46 -87 -54 -23 -4 -42 -15 -48 -27
-27 -49 31 -87 79 -51 57 42 72 46 88 23 8 -13 25 -21 42 -21 25 0 68 -30 45
-30 -5 0 -20 -9 -32 -18 -23 -18 -23 -21 -11 -63 7 -24 18 -51 26 -60 15 -18
17 -45 3 -54 -5 -3 -7 -12 -3 -20 3 -9 -1 -15 -11 -15 -9 0 -16 -3 -16 -7 0
-5 -17 -27 -39 -49 -21 -23 -42 -50 -46 -60 -8 -18 -9 -17 -12 3 -4 21 -7 20
-46 -18 -30 -28 -49 -39 -67 -37 -14 1 -31 -1 -38 -5 -6 -5 -12 -5 -12 0 0 4
-4 3 -8 -3 -11 -15 -81 -46 -91 -40 -5 3 -11 0 -14 -7 -3 -7 -27 -24 -53 -38
-27 -13 -59 -33 -72 -44 -24 -21 -92 -31 -92 -14 0 7 -19 9 -50 6 -32 -3 -53
-1 -59 7 -6 7 -38 13 -73 14 -68 2 -143 17 -197 39 -43 18 -135 105 -151 143
-13 32 -31 32 -23 1 3 -10 0 -22 -6 -25 -14 -9 -14 -53 -1 -61 6 -3 10 -15 10
-27 0 -14 5 -18 16 -14 59 23 67 21 128 -28 23 -19 36 -38 36 -53 0 -14 -4
-21 -10 -18 -11 7 -14 -28 -3 -39 11 -11 14 -266 3 -266 -6 0 -6 -10 1 -26 5
-15 7 -29 5 -32 -3 -2 2 -18 11 -35 11 -22 12 -32 4 -35 -6 -2 -11 -10 -11
-18 0 -18 -9 -18 -54 1 -36 15 -37 15 -27 -3 6 -11 7 -22 4 -26 -11 -10 31
-77 45 -71 9 3 10 0 2 -15 -9 -16 -6 -19 22 -22 18 -2 33 -7 32 -13 -1 -5 12
-18 27 -27 16 -10 29 -21 29 -24 0 -8 -77 0 -101 10 -10 5 -16 2 -16 -8 0 -8
6 -12 14 -9 7 3 13 -1 13 -10 0 -8 7 -20 15 -27 32 -26 13 -25 -42 1 -55 27
-142 43 -100 18 9 -6 25 -12 35 -14 33 -6 70 -24 78 -36 5 -9 2 -10 -12 -5
-10 5 -35 9 -54 11 -19 1 -53 6 -74 10 -28 6 -37 5 -32 -4 4 -6 15 -11 24 -11
9 0 35 -9 57 -20 l40 -20 -49 6 c-27 3 -60 13 -73 22 -23 14 -24 14 -21 -4 4
-27 15 -32 78 -40 62 -8 163 -54 117 -54 -14 0 -38 5 -52 10 -36 14 -104 19
-136 10 -29 -9 -62 3 -38 13 8 3 4 6 -8 6 -13 1 -23 6 -23 11 0 6 10 10 23 11
20 1 20 1 -5 10 -16 6 -25 16 -22 24 4 10 -1 12 -17 8 -15 -4 -20 -3 -15 5 4
7 14 12 22 12 8 0 14 7 14 16 0 11 6 14 23 8 12 -4 25 -12 30 -18 5 -8 10 -6
17 4 14 22 12 30 -7 31 -10 0 -13 3 -6 5 7 3 10 11 7 19 -4 10 -24 7 -91 -16
-47 -16 -88 -27 -91 -24 -3 3 2 13 10 22 15 17 28 49 32 80 1 8 9 19 17 24 11
7 11 9 -3 9 -10 0 -18 5 -18 10 0 10 19 14 53 11 9 -1 17 3 17 8 0 6 -7 11
-15 11 -8 0 -15 5 -15 10 0 6 -6 10 -14 10 -7 0 -16 14 -20 31 -3 18 -13 33
-24 35 -13 4 -18 16 -19 47 -1 23 -2 58 -3 77 -1 23 5 39 16 47 17 12 16 13
-3 13 -17 0 -20 5 -15 22 3 13 1 19 -5 15 -19 -12 -35 20 -28 53 4 16 10 30
14 30 5 0 6 11 3 25 -3 19 0 25 13 25 14 0 15 3 6 14 -12 14 -10 50 2 62 4 4
7 23 7 41 0 19 5 44 12 56 7 12 11 35 9 51 -2 18 1 26 8 22 6 -4 11 -19 11
-33 0 -24 2 -25 42 -19 41 7 91 28 58 25 -51 -5 -56 -1 -52 44 2 23 11 50 19
59 9 9 18 32 22 50 5 27 13 34 36 38 29 5 30 7 27 50 -3 42 27 150 48 173 10
11 -12 57 -27 57 -7 0 -13 4 -13 10 0 6 -9 6 -23 1 -19 -7 -27 -5 -37 9 -10
14 -17 16 -27 8 -10 -8 -15 -5 -21 12 -8 22 -10 20 -25 -19 -9 -23 -17 -47
-17 -53 0 -16 -39 -97 -50 -103 -5 -3 -7 -12 -4 -19 3 -8 1 -17 -5 -21 -6 -3
-11 -13 -11 -20 0 -15 -58 -116 -72 -125 -4 -3 -10 -25 -14 -48 -4 -23 -9 -42
-13 -42 -3 0 -14 -18 -25 -39 -10 -21 -29 -45 -42 -52 -15 -8 -24 -21 -24 -36
0 -23 -11 -32 -44 -37 -9 -1 -22 -11 -30 -22 -8 -10 -18 -16 -22 -12 -4 4 -13
3 -21 -3 -21 -18 -92 -28 -127 -18 -17 5 -48 25 -70 44 -21 19 -45 35 -52 35
-8 0 -17 7 -20 15 -4 8 -14 15 -24 15 -10 0 -26 7 -34 16 -15 14 -16 14 -16
-1 0 -13 -4 -14 -22 -4 -13 7 -28 17 -34 24 -6 6 -37 17 -68 25 -39 9 -56 18
-56 29 -1 14 -2 13 -11 -1 -14 -24 -29 -23 -29 2 0 22 -31 41 -37 23 -6 -17
-66 11 -73 33 -4 11 -20 21 -35 24 -16 3 -28 9 -26 13 2 5 -10 22 -25 38 -20
21 -30 26 -36 17 -5 -9 -8 -8 -8 5 0 9 -6 17 -14 17 -26 0 -65 41 -90 95 -14
29 -26 60 -26 67 0 7 -11 31 -23 53 -27 46 -50 146 -45 190 l3 30 34 -37 c43
-47 88 -52 127 -13 22 23 25 31 19 68 -4 23 -14 60 -23 82 -14 37 -67 124 -82
135 -15 11 -20 48 -8 58 15 12 98 -21 98 -38 0 -17 43 -11 78 10 38 23 60 68
54 108 -2 20 -16 36 -43 52 -21 14 -41 30 -43 36 -3 7 -20 20 -39 29 -21 10
-38 28 -47 50 l-13 34 -29 -17 c-40 -24 -35 -39 23 -59 27 -10 72 -37 99 -61
57 -50 71 -89 44 -130 -11 -16 -19 -22 -22 -14 -2 7 2 20 9 28 11 14 10 19
-11 36 -28 23 -63 20 -68 -5 -2 -11 8 -32 24 -48 34 -35 19 -38 -21 -4 -68 57
-109 85 -122 85 -7 0 -37 12 -65 26 -61 31 -88 19 -39 -17 31 -23 41 -54 19
-61 -6 -2 16 -32 48 -67 32 -35 63 -71 68 -80 5 -9 24 -33 43 -54 27 -30 33
-45 33 -80 0 -31 -6 -49 -20 -62 -26 -23 -37 -12 -20 20 11 20 10 28 -4 50
-18 28 -63 34 -72 10 -4 -8 -11 -15 -18 -15 -18 0 -161 150 -195 205 -35 57
-40 48 -11 -20 25 -59 25 -59 -4 -71 l-25 -9 21 -60 c11 -33 27 -67 34 -75 12
-12 14 -11 14 13 0 15 7 44 15 63 17 42 45 43 59 2 9 -25 6 -31 -28 -60 l-38
-33 35 -55 c20 -30 51 -72 69 -94 42 -48 57 -76 58 -101 0 -16 -7 -12 -39 19
l-40 39 -37 -15 c-33 -13 -39 -13 -54 1 -9 9 -44 41 -78 71 -34 30 -66 68 -72
83 -6 18 -14 26 -21 21 -8 -4 -9 -3 -5 5 4 6 0 18 -8 27 -15 14 -16 12 -15
-23 0 -60 20 -97 87 -168 35 -37 67 -76 71 -88 5 -12 25 -46 45 -76 23 -33 36
-65 36 -85 l0 -31 -23 40 c-16 29 -31 41 -55 46 -36 7 -177 144 -197 192 -10
24 -12 11 -11 -85 l1 -113 30 1 c17 0 38 4 47 8 15 7 18 3 18 -18 0 -14 3 -26
8 -26 4 0 27 -19 52 -41 25 -23 56 -49 68 -57 23 -15 25 -14 56 23 29 34 33
36 38 19 6 -25 0 -44 -16 -44 -7 0 -10 -13 -8 -38 3 -26 -1 -42 -12 -51 -9 -8
-16 -19 -16 -27 0 -20 -17 -26 -41 -14 -17 9 -27 7 -53 -11 -44 -30 -58 -69
-39 -106 8 -15 19 -31 25 -34 14 -9 73 0 117 17 48 20 55 18 94 -21 43 -43
116 -67 207 -69 60 -1 65 -3 68 -25 5 -31 -6 -40 -53 -42 -22 -1 -45 -7 -52
-12 -7 -5 -21 -6 -33 -2 -12 4 -20 2 -20 -5 0 -14 -64 -7 -83 8 -14 12 -51 9
-118 -9 -43 -11 -49 -10 -98 17 -52 28 -52 28 -46 67 6 31 3 41 -12 52 -10 8
-26 15 -35 15 -10 0 -23 9 -30 20 -7 11 -18 20 -24 20 -13 0 -34 -110 -37
-189 l-2 -54 65 -45 c213 -150 306 -204 545 -322 292 -144 479 -252 543 -313
23 -23 42 -37 42 -32 0 5 11 -7 25 -26 13 -20 31 -39 40 -43 9 -3 13 -10 10
-16 -3 -5 -1 -10 4 -10 6 0 11 -7 11 -15 0 -8 5 -15 10 -15 6 0 10 -7 10 -15
0 -8 5 -15 10 -15 6 0 10 -9 10 -21 0 -12 4 -17 11 -13 7 4 9 0 5 -14 -5 -15
-1 -24 14 -32 11 -6 25 -8 30 -5 6 3 10 1 10 -5 0 -6 7 -18 15 -26 8 -9 18
-27 21 -42 4 -15 11 -33 17 -40 5 -7 11 -27 12 -45 3 -55 23 -131 34 -135 6
-2 9 -7 6 -12 -3 -4 2 -21 10 -36 8 -16 15 -34 15 -40 0 -6 9 -33 21 -58 11
-26 22 -59 23 -74 3 -23 8 -27 38 -29 l36 -3 -3 79 c-2 44 -8 88 -14 99 -13
25 -14 82 -2 82 14 0 78 -78 102 -124 11 -23 28 -47 37 -54 9 -7 17 -23 17
-35 2 -46 8 -47 178 -47 l162 1 59 100 c32 55 60 99 61 97 2 -2 -5 -39 -15
-83 -25 -103 -25 -115 0 -115 11 0 20 7 20 15 0 8 4 15 10 15 5 0 7 -8 3 -17
-3 -10 9 5 27 32 20 29 35 66 37 88 2 22 14 67 27 100 13 34 34 95 47 135 12
39 26 72 31 72 4 0 8 8 8 18 0 9 12 40 25 67 14 28 25 55 25 61 0 7 11 22 25
35 13 13 25 32 25 42 0 10 7 20 15 23 8 4 15 10 15 16 0 13 38 49 105 98 33
24 76 55 95 70 42 31 182 117 380 232 155 90 320 199 342 225 9 11 13 54 14
140 1 127 7 148 40 141 14 -2 19 -14 21 -51 3 -47 32 -119 53 -132 5 -3 15 -1
22 4 7 6 24 20 38 30 24 19 25 19 8 55 -10 20 -15 42 -12 51 4 9 0 15 -9 15
-8 0 -20 14 -26 30 -9 26 -15 30 -48 30 -21 0 -76 -9 -122 -20 -46 -11 -130
-23 -187 -27 -87 -5 -107 -3 -128 11 -15 9 -26 23 -26 31 0 15 49 45 73 45 8
0 20 7 27 15 7 8 24 15 39 15 41 0 187 55 226 84 27 21 39 41 51 85 14 49 21
59 46 67 23 7 38 23 62 69 24 45 37 61 56 63 50 7 60 28 54 106 -6 79 4 108
30 87 11 -9 20 -10 35 -1 26 13 26 26 1 73 -11 20 -20 44 -20 52 0 51 -44 -29
-53 -96 -8 -53 -81 -155 -129 -180 -21 -11 -41 -26 -45 -34 -8 -22 -23 -8 -23
21 0 13 -4 24 -10 24 -5 0 -10 9 -10 20 0 13 7 20 19 20 32 0 78 71 115 180
38 110 46 180 21 200 -15 13 -22 5 -29 -32 -7 -33 -18 -75 -26 -93 -4 -11 -15
-40 -24 -65 -22 -63 -105 -135 -146 -126 -22 4 -37 -1 -60 -20 -16 -14 -30
-22 -30 -17 0 26 45 132 65 153 13 14 42 63 63 110 38 80 41 92 46 205 6 119
-5 182 -20 119 -4 -16 -15 -39 -24 -51 -15 -19 -17 -20 -27 -5 -9 13 -10 8 -7
-23 4 -32 -6 -63 -50 -160 -48 -107 -57 -120 -77 -118 -50 4 -69 -7 -91 -52
-15 -31 -24 -41 -30 -32 -8 16 11 92 42 162 24 55 120 339 120 355 0 6 -6 10
-14 10 -29 0 -35 24 -16 65 10 22 16 42 14 44 -10 11 -134 -128 -163 -183 -26
-49 -31 -54 -31 -32 0 23 -3 26 -20 21 -11 -4 -20 -2 -20 4 0 6 -4 11 -10 11
-14 0 -42 -59 -34 -72 5 -7 3 -8 -6 -3 -19 12 -6 106 21 154 12 22 19 47 15
56 -8 23 -28 8 -20 -17 5 -18 4 -19 -18 -8 -12 7 -33 22 -45 33 -27 24 -39 18
-24 -11 6 -12 11 -29 11 -39 -1 -17 -2 -16 -15 2 -36 48 -58 65 -77 59 -15 -4
-35 10 -84 61 -48 50 -64 61 -64 46 0 -11 6 -24 13 -28 6 -4 19 -17 27 -27 14
-18 14 -19 -10 -6 -14 7 -45 30 -69 52 -44 38 -61 46 -61 28z m-451 -1647 c19
-15 68 -57 109 -94 124 -113 357 -203 517 -199 118 3 119 2 38 -65 -32 -26
-96 -84 -143 -129 -47 -45 -109 -99 -139 -120 -49 -36 -59 -39 -127 -42 -44
-2 -93 3 -121 11 -55 17 -66 18 -59 7 3 -5 -2 -9 -10 -9 -22 0 -41 35 -47 87
-3 25 -13 59 -21 76 -9 17 -20 64 -25 105 -12 96 -23 399 -15 399 4 0 23 -12
43 -27z m-329 -622 c0 -13 70 -22 90 -11 14 8 22 4 34 -15 9 -14 14 -25 10
-25 -4 0 -1 -7 6 -15 14 -17 30 -20 30 -6 0 5 -7 11 -15 13 -10 2 -12 8 -5 17
7 12 12 12 23 3 11 -10 17 -9 26 2 10 11 8 15 -6 19 -14 4 -13 5 5 6 12 0 22
-5 23 -11 0 -10 2 -10 6 0 8 20 55 15 52 -5 -3 -25 11 -53 26 -53 8 0 12 -9 9
-22 -2 -13 -1 -17 2 -10 5 10 9 9 19 -5 10 -13 10 -21 2 -31 -8 -10 -7 -16 4
-24 11 -7 11 -11 1 -15 -10 -4 -9 -9 5 -20 16 -13 13 -14 -32 -8 -36 4 -46 3
-35 -4 8 -6 23 -11 33 -11 9 0 17 -7 17 -16 0 -11 -6 -15 -18 -12 -24 7 -47
-18 -26 -26 9 -3 28 -6 42 -7 27 0 27 0 4 -10 -13 -5 -28 -7 -32 -4 -5 3 -14
-3 -19 -14 -9 -17 -19 -19 -73 -15 -50 4 -58 2 -39 -6 14 -6 32 -10 40 -9 36
3 44 -4 11 -10 -21 -4 -34 -12 -32 -19 1 -7 -12 -18 -29 -24 -26 -9 -29 -13
-18 -22 15 -12 25 -46 13 -46 -4 0 -13 8 -21 18 -10 12 -16 14 -19 5 -8 -18
-44 -16 -44 2 0 8 -9 15 -19 15 -14 0 -19 -7 -17 -25 0 -14 5 -25 11 -25 5 0
4 -5 -2 -11 -6 -6 -9 -17 -7 -24 6 -15 -54 -27 -76 -14 -11 6 -11 8 -2 9 27 0
-1 20 -29 20 -16 0 -29 5 -29 11 0 6 7 8 16 5 8 -3 12 -2 9 3 -3 5 5 13 16 16
20 7 20 8 6 17 -10 5 -22 6 -27 3 -6 -3 -7 1 -4 10 5 11 2 14 -10 9 -10 -4
-16 -1 -16 7 0 10 -3 10 -12 1 -14 -14 -57 -16 -77 -3 -10 7 -1 11 33 16 26 4
50 14 53 21 3 8 13 14 23 14 11 0 21 4 24 9 7 11 -27 20 -74 22 -30 0 -32 2
-15 10 15 7 9 8 -22 4 -23 -3 -44 -1 -47 4 -3 4 23 9 57 10 85 4 105 6 113 14
12 11 -74 12 -179 1 -58 -6 -59 -6 -41 14 16 20 24 85 11 98 -7 8 3 37 17 46
8 5 7 11 -2 20 -14 14 -16 32 -3 24 5 -4 7 3 4 15 -5 19 -4 20 16 10 17 -10
21 -9 21 4 0 9 -4 14 -9 10 -5 -3 -13 0 -17 6 -4 8 -3 9 4 5 7 -4 12 -1 12 7
0 8 7 17 15 21 18 7 20 -5 3 -23 -11 -12 -9 -12 7 -6 17 8 42 10 158 14 10 1
17 9 17 21 0 11 5 20 10 20 6 0 10 -4 10 -9z"/>
<path d="M3121 2379 c-82 -24 -171 -105 -196 -178 -20 -58 -19 -145 1 -205 24
-70 105 -150 174 -170 141 -42 272 7 343 127 36 59 60 168 39 175 -5 1 -8 12
-5 22 6 24 -12 27 -21 4 -5 -13 -9 -14 -21 -4 -12 10 -15 9 -15 -3 0 -11 -5
-14 -17 -10 -12 5 -15 2 -10 -10 8 -22 -8 -30 -23 -12 -7 8 -19 15 -28 15 -8
0 -12 3 -9 7 4 3 -10 21 -31 40 -30 27 -38 30 -41 16 -2 -9 4 -21 13 -27 8 -6
34 -24 56 -39 l41 -29 -135 -89 c-74 -49 -137 -89 -140 -89 -3 0 -6 81 -6 180
0 103 4 180 9 180 5 0 22 -10 38 -23 15 -12 47 -35 71 -50 40 -26 42 -26 42
-7 0 11 -4 20 -10 20 -5 0 -10 6 -10 13 0 27 -22 87 -30 82 -4 -3 -10 1 -13 7
-3 10 -9 8 -24 -5 -20 -18 -21 -17 -25 12 -3 21 -1 28 9 24 8 -3 13 3 13 16 0
12 -1 21 -2 20 -2 0 -18 -5 -37 -10z"/>
</g>
</svg>
